<svg width="322" height="322" viewBox="0 0 322 322" fill="none" xmlns="http://www.w3.org/2000/svg">
<g clip-path="url(#clip0_244_2)">
<path fill-rule="evenodd" clip-rule="evenodd" d="M160.553 0C248.996 0 321.26 72.2642 321.26 160.553C321.26 248.996 248.996 321.26 160.553 321.26C72.2642 321.26 0 248.996 0 160.553C0 72.2642 72.2642 0 160.553 0Z" fill="#801E1E"/>
<path fill-rule="evenodd" clip-rule="evenodd" d="M73.959 219.258L155.006 84.5907L233.741 217.717L208.164 218.025L142.063 106.162L73.959 219.258Z" fill="#FEFEFE"/>
<path d="M141.909 104.929C146.223 97.6876 150.692 90.4458 155.006 83.204C181.816 128.196 208.472 173.342 235.128 218.488L207.702 218.796L142.063 107.549L75.0376 218.796H73.4968L141.909 104.929ZM155.006 85.9774L142.833 106.162L208.472 217.409L232.509 217.101L155.006 85.9774Z" fill="#FEFEFE"/>
<path d="M154.235 126.347L97.8416 218.796H96.1467L153.003 125.576L154.235 126.347Z" fill="#FEFEFE"/>
<path d="M234.82 181.97L105.083 182.741L110.322 173.188L230.352 171.647L234.82 181.97Z" fill="#FEFEFE"/>
<path d="M208.164 193.218L157.933 193.064L156.239 191.523L208.164 191.677V193.218Z" fill="#FEFEFE"/>
<path d="M208.164 218.796L195.992 218.487L195.529 217.101L208.164 217.255V218.796Z" fill="#FEFEFE"/>
<path d="M162.094 71.0315L247.763 218.487H246.376L161.477 72.2641L162.094 71.0315Z" fill="#FEFEFE"/>
</g>
<defs>
<clipPath id="clip0_244_2">
<rect width="321.26" height="321.26" fill="white"/>
</clipPath>
</defs>
</svg>
